<svg xmlns="http://www.w3.org/2000/svg" viewBox="0 0 64 64">
  <defs>
    <linearGradient id="g" x1="0" y1="0" x2="1" y2="1">
      <stop offset="0" stop-color="#FF6B00"/>
      <stop offset="1" stop-color="#FFC107"/>
    </linearGradient>
  </defs>
  <rect width="64" height="64" rx="14" fill="url(#g)"/>
  <!-- simple car -->
  <g fill="#ffffff">
    <path d="M14 36c0-2 1-3 3-4l3-7c1-2 3-3 5-3h16c2 0 4 1 5 3l3 7c2 1 3 2 3 4v6a2 2 0 0 1-2 2h-3a4 4 0 0 1-8 0H27a4 4 0 0 1-8 0h-3a2 2 0 0 1-2-2z"/>
  </g>
  <g fill="#FF6B00">
    <circle cx="23" cy="44" r="2.4"/>
    <circle cx="41" cy="44" r="2.4"/>
  </g>
  <path d="M24 26h16l2 6H22z" fill="#FFC107"/>
</svg>
